<?xml version="1.0"?>
<!DOCTYPE svg PUBLIC "-//W3C//DTD SVG 1.1//EN" "http://www.w3.org/Graphics/SVG/1.1/DTD/svg11.dtd">
<svg width="575.870329895mm" height="413.911384766mm" viewBox="0 0 575.870329895 413.911384766" xmlns="http://www.w3.org/2000/svg" version="1.1">
<g id="Sketch" transform="translate(376.229317,166.279297) scale(1,-1)">
<path id="Sketch_w0000"  d="M -68.0497594989 57.0034946294 L -62.7164261656 -22.9965053706 L -82.7164261656 -22.9965053706 L -68.0497594989 57.0034946294 L -62.7164261656 127.003494629 L 137.283573834 127.003494629 L 142.616907168 57.0034946294 L 137.283573834 -22.9965053706 L -62.7164261656 -22.9965053706 L -52.7164261656 -172.996505371 L 127.283573834 -172.996505371 L 137.283573834 -22.9965053706 L 157.283573834 -22.9965053706 L 177.283573834 -172.996505371 L 127.283573834 -172.996505371 L 117.283573834 -221.986300226 L -42.7164261656 -221.986300226 L -52.7164261656 -172.996505371 L -102.716426166 -172.996505371 L -82.7164261656 -22.9965053706 M 142.616907168 57.0034946294 L 157.283573834 -22.9965053706 " stroke="#000000" stroke-width="0.35 px" style="stroke-width:0.35;stroke-miterlimit:4;stroke-dasharray:none;fill:none;fill-rule: evenodd "/>
<path id="Sketch_w0001"  d="M -330.234002429 140.633509444 L -130.234002429 140.633509444 L -150.234002429 -9.36649055627 L -310.234002429 -9.36649055627 L -330.234002429 140.633509444 " stroke="#000000" stroke-width="0.35 px" style="stroke-width:0.35;stroke-miterlimit:4;stroke-dasharray:none;fill:none;fill-rule: evenodd "/>
<path id="Sketch_w0002"  d="M -82.7164261656 147.003494629 L 149.021414859 147.003494629 L 155.012687659 68.3680391369 L 170.170438321 -14.3106008388 L 193.995225592 -192.996505371 L 147.283573834 -192.996505371 L 137.283573834 -241.986300226 L -65.5540036455 -241.986300226 L -75.5540036455 -192.996505371 L -127.713171631 -192.996505371 L -103.342279631 -10.2148153704 L -88.5457618937 70.4934631975 L -82.7164261656 147.003494629 " stroke="#000000" stroke-width="0.35 px" style="stroke-width:0.35;stroke-miterlimit:4;stroke-dasharray:none;fill:none;fill-rule: evenodd "/>
<path id="Sketch_w0003"  d="M -350.234002429 160.633509444 L -110.234002429 160.633509444 L -135.567335762 -29.3664905563 L -324.900669096 -29.3664905563 L -350.234002429 160.633509444 " stroke="#000000" stroke-width="0.35 px" style="stroke-width:0.35;stroke-miterlimit:4;stroke-dasharray:none;fill:none;fill-rule: evenodd "/>
<path id="Sketch_w0004"  d="M -331.656393245 -91.2760661744 L -342.009155049 -129.913099226 L -251.083295637 -170.574298229 L -261.656393245 -91.2760661744 L -331.656393245 -91.2760661744 " stroke="#000000" stroke-width="0.35 px" style="stroke-width:0.35;stroke-miterlimit:4;stroke-dasharray:none;fill:none;fill-rule: evenodd "/>
<path id="Sketch_w0005"  d="M -351.656393245 -71.2760661744 L -241.656393245 -71.2760661744 L -223.466187862 -207.702606545 L -370.583529207 -141.913099226 L -351.656393245 -71.2760661744 " stroke="#000000" stroke-width="0.35 px" style="stroke-width:0.35;stroke-miterlimit:4;stroke-dasharray:none;fill:none;fill-rule: evenodd "/>
<title>Sketch</title>
</g>
</svg>